<svg xmlns="http://www.w3.org/2000/svg" viewBox="0 0 50 50"><defs><style>.cls-1{fill:#82177e;}.cls-2{fill:#fff;}</style></defs><title>Davos-Seaworth</title><g id="Layer_8" data-name="Layer 8"><circle class="cls-1" cx="25" cy="25" r="24"/><path class="cls-2" d="M22.3,8.79s0,4.05-4.05,8.1S8.8,22.29,8.8,29,14.2,42.53,25,43.88s16.2-9.45,16.2-13.5-1.35-9.44-8.1-12.14a8.51,8.51,0,0,1-5.4-9.45,5.91,5.91,0,0,0-1.35,4.05s0-5.4-1.35-6.75a27.46,27.46,0,0,0-1.35,6.75S23.65,10.14,22.3,8.79Z"/><path d="M16.57,35.78s-7.36-8.59,0-13.49C16.57,22.29,11.66,26,16.57,35.78Z"/><path d="M23.65,20.94s-7.2,4-2.4,16.19C21.25,37.13,18.85,26.33,23.65,20.94Z"/><path d="M27.7,19.59a25.55,25.55,0,0,1,0,21.59A18.15,18.15,0,0,0,27.7,19.59Z"/><path d="M34.45,23.64a15.74,15.74,0,0,1,0,12.14S38.5,29,34.45,23.64Z"/></g></svg>