<svg xmlns="http://www.w3.org/2000/svg" viewBox="0 0 50 50"><defs><style>.cls-1{fill:#08623e;}.cls-2{fill:#fff;}</style></defs><title>Jon-Snow-icon</title><g id="Jon_Snow" data-name="Jon Snow"><circle class="cls-1" cx="25" cy="25" r="24"/><polygon class="cls-2" points="20.09 15.64 16 12.36 13.54 8.27 20.91 10.73 25.82 9.91 31.55 10.73 33.18 13.18 43 13.18 41.36 18.09 34 19.73 30.73 22.18 41.36 22.18 39.73 23.82 38.09 26.27 32.36 26.27 27.45 34.45 24.18 31.18 20.91 36.91 18.45 32.82 14.36 37.73 13.54 32.82 7 36.09 12.73 29.55 7 28.73 12.73 23.82 8.64 23 12.73 20.55 8.64 19.73 15.18 17.27 12.73 15.64 20.09 15.64"/></g></svg>