<svg xmlns="http://www.w3.org/2000/svg" viewBox="0 0 50 50"><defs><style>.cls-1{fill:#160451;}.cls-2{fill:#fff;}</style></defs><title>Stannis-Baratheon-icon</title><g id="Layer_7" data-name="Layer 7"><circle class="cls-1" cx="25" cy="25" r="24"/><rect class="cls-2" x="18.03" y="32.81" width="13.93" height="3.48" rx="1.03" ry="1.03"/><path class="cls-2" d="M23.26,38V44.1a.9.9,0,0,0,.9.9h1.68a.9.9,0,0,0,.9-.9V38Z"/><path class="cls-2" d="M25,31.07H21.49a1,1,0,0,1-1-.83l-3.23-17a1,1,0,0,1,.24-.87l6.74-7.49a1,1,0,0,1,1.52,0l6.74,7.49a1,1,0,0,1,.24.87l-3.23,17a1,1,0,0,1-1,.83Z"/></g></svg>