<svg xmlns="http://www.w3.org/2000/svg" viewBox="0 0 50 50"><defs><style>.cls-1{fill:#88661c;}.cls-2{fill:#fff;}</style></defs><title>Viserys-Targarian-icon</title><g id="Layer_10" data-name="Layer 10"><circle class="cls-1" cx="25" cy="25" r="24"/><path class="cls-2" d="M21.83,31,19,25a1.26,1.26,0,0,0-1.12-.79h-5.7A1.26,1.26,0,0,0,11,25L8.17,31a2,2,0,0,0-.17.79H22A2,2,0,0,0,21.83,31Z"/><path class="cls-2" d="M41.83,31,39,25a1.26,1.26,0,0,0-1.12-.79h-5.7A1.26,1.26,0,0,0,31,25L28.17,31a2,2,0,0,0-.17.79H42A2,2,0,0,0,41.83,31Z"/><path class="cls-2" d="M31.83,21,29,15a1.26,1.26,0,0,0-1.12-.79h-5.7A1.26,1.26,0,0,0,21,15L18.17,21a2,2,0,0,0-.17.79H32A2,2,0,0,0,31.83,21Z"/></g></svg>